#N canvas 666 224 1280 712 12;
#X declare -stdpath mrpeach;
#N canvas 0 22 450 278 (subpatch) 0;
#X array \$0-myMelody 40 float 3;
#A 0 62 64 65 62 62 64 65 62 65 67 69 69 65 67 69 69 69 71 69 67 65
65 62 62 69 71 69 67 65 65 62 62 62 65 62 0 62 65 62 62;
#X coords 0 127 40 0 200 127 1 0 0;
#X restore 62 47 graph;
#X obj 45 320 tabread \$0-myMelody;
#X floatatom 45 292 5 0 0 0 - - -;
#X floatatom 45 353 5 0 0 0 - - -;
#X text 315 29 the table's name is "\$0-myMelody" \; starting a name
with "\$0" makes each instance unique;
#X text 37 205 if you LOCK the patch (take it out of EDIT mode) \,
you can draw values into the table;
#X text 14 11 1;
#X text 17 205 4;
#X text 18 259 5;
#X text 34 255 you can read values out of a table with "tabread" put
in the index (an integer) \, get out the value (a float);
#X text 43 10 this is a "table" (i.e. an array);
#X text 316 114 select the table (gui) \, right click \, select properties
\, modify away!;
#X text 131 32 <--------------------------2;
#X text 265 116 <----3;
#X obj 914 19 tgl 25 0 empty empty Enable_Audio 30 12 0 12 -4034 -1
-1 0 1;
#X msg 914 50 \; pd dsp \$1;
#X text 87 290 <--- try it! put in the index;
#X text 91 353 <--- read out the value;
#X obj 754 23 cnv 15 150 20 empty empty empty 20 12 0 14 -4034 -66577
0;
#X text 758 24 Enable audio output -->;
#X obj 39 616 tabread \$0-myMelody;
#X floatatom 40 589 5 0 0 0 - - -;
#X floatatom 39 652 5 0 0 0 - - -;
#X obj 40 535 f;
#X obj 88 535 + 1;
#X text 37 381 add a counter \, add a metro \, an oscillator and BAM
we have a sequencer!;
#X obj 39 773 *~ 0.3;
#X obj 39 740 osc~;
#X obj 30 822 dac~;
#X text 19 382 6;
#X text 117 434 <--- turn it on!;
#X floatatom 100 461 5 0 0 0 - - -;
#X text 137 460 <--- interval (ms);
#X text 134 556 <--- don't go over 23!;
#X text 80 682 <--- change from MIDI (linear) to Hertz (log);
#X floatatom 39 712 5 0 0 0 - - -;
#X obj 39 681 mtof;
#X floatatom 126 520 5 0 0 0 - - -;
#X obj 41 433 bng 25 250 50 0 empty start Start 30 12 0 14 -4034 -1
-1;
#X text 81 713 frequency in Hz;
#X text 80 653 MIDI note value;
#X text 89 774 amplitude scaling;
#X text 68 819 direct audio output;
#X text 193 812 if nothing is audible even with DSP on \, check the
default audio device in the preferences menu;
#X obj 270 432 bng 25 250 50 0 empty start Stop 30 12 0 14 -257985
-1 -1;
#X msg 268 472 0;
#X obj 284 592 intro-to-counters;
#X text 163 519 <--- sequence length;
#X text 81 589 <--- this is a counter \; check these counters --->
;
#X msg 171 756 0;
#X msg 171 733 0.3;
#X obj 41 492 metro 450;
#X obj 88 557 mod 41;
#X msg 720 204 disconnect;
#X obj 515 309 tgl 15 0 empty empty empty 17 7 0 10 -262144 -1 -1 1
1;
#X obj 567 301 packOSC;
#X obj 514 275 udpsend;
#X msg 561 488 send /8/push2 1;
#X obj 510 462 sel 60;
#X obj 510 488 sel 61;
#X obj 509 514 sel 62;
#X obj 509 542 sel 63;
#X obj 508 569 sel 64;
#X obj 509 594 sel 65;
#X obj 508 623 sel 66;
#X obj 509 650 sel 67;
#X obj 509 677 sel 68;
#X obj 509 704 sel 69;
#X obj 509 731 sel 70;
#X obj 510 757 sel 71;
#X text 798 463 Do;
#X text 794 489 Do#;
#X text 796 516 Re;
#X text 792 545 Re#;
#X text 798 572 Mi;
#X text 798 597 Fa;
#X text 797 623 Fa#;
#X text 797 653 Sol;
#X text 790 678 Sol#;
#X text 807 702 La;
#X text 803 727 La#;
#X text 811 758 Si;
#X text 772 122 Nombres:;
#X text 850 125 Ivan David Valderrama Corredor;
#X text 851 142 Enrique Paris;
#X text 851 158 Juan Miguel Cardona;
#X msg 514 204 connect 192.168.43.219 9300;
#X obj 646 300 unpackOSC;
#X obj 646 326 print;
#X obj 512 178 declare -stdpath mrpeach;
#X obj 769 275 routeOSC /8/push3;
#X obj 646 274 udpreceive 9200;
#X msg 561 462 send /8/push1 1;
#X msg 560 514 send /8/push3 1;
#X msg 560 542 send /8/push4 1;
#X msg 559 569 send /8/push5 1;
#X msg 560 594 send /8/push6 1;
#X msg 559 623 send /8/push7 1;
#X msg 674 462 send /8/push1 0;
#X msg 677 488 send /8/push2 0;
#X msg 677 515 send /8/push3 0;
#X msg 675 544 send /8/push4 0;
#X msg 677 572 send /8/push5 0;
#X msg 676 595 send /8/push6 0;
#X msg 677 625 send /8/push7 0;
#X msg 677 653 send /8/push8 0;
#X msg 678 679 send /8/push9 0;
#X msg 681 705 send /8/push10 0;
#X msg 681 732 send /8/push11 0;
#X msg 682 758 send /8/push12 0;
#X msg 561 757 send /8/push12 1;
#X msg 560 731 send /8/push11 1;
#X msg 560 704 send /8/push10 1;
#X msg 560 677 send /8/push9 1;
#X msg 560 650 send /8/push8 1;
#X msg 971 355 send /8/push1 1;
#X msg 971 386 send /8/push1 0;
#X connect 1 0 3 0;
#X connect 2 0 1 0;
#X connect 14 0 15 0;
#X connect 20 0 22 0;
#X connect 21 0 20 0;
#X connect 22 0 36 0;
#X connect 22 0 58 0;
#X connect 22 0 59 0;
#X connect 22 0 60 0;
#X connect 22 0 61 0;
#X connect 22 0 62 0;
#X connect 22 0 63 0;
#X connect 22 0 64 0;
#X connect 22 0 65 0;
#X connect 22 0 66 0;
#X connect 22 0 67 0;
#X connect 22 0 68 0;
#X connect 22 0 69 0;
#X connect 23 0 24 0;
#X connect 23 0 21 0;
#X connect 24 0 52 0;
#X connect 26 0 28 1;
#X connect 26 0 28 0;
#X connect 27 0 26 0;
#X connect 31 0 51 1;
#X connect 35 0 27 0;
#X connect 36 0 35 0;
#X connect 37 0 52 1;
#X connect 38 0 51 0;
#X connect 44 0 45 0;
#X connect 45 0 51 0;
#X connect 49 0 26 1;
#X connect 50 0 26 1;
#X connect 51 0 23 0;
#X connect 52 0 23 1;
#X connect 53 0 56 0;
#X connect 55 0 56 0;
#X connect 56 0 54 0;
#X connect 57 0 55 0;
#X connect 58 0 92 0;
#X connect 58 0 99 0;
#X connect 58 0 100 0;
#X connect 58 0 101 0;
#X connect 58 0 102 0;
#X connect 58 0 103 0;
#X connect 58 0 104 0;
#X connect 58 0 105 0;
#X connect 58 0 106 0;
#X connect 58 0 107 0;
#X connect 58 0 109 0;
#X connect 58 0 108 0;
#X connect 59 0 57 0;
#X connect 59 0 98 0;
#X connect 59 0 100 0;
#X connect 59 0 101 0;
#X connect 59 0 102 0;
#X connect 59 0 103 0;
#X connect 59 0 104 0;
#X connect 59 0 105 0;
#X connect 59 0 106 0;
#X connect 59 0 107 0;
#X connect 59 0 109 0;
#X connect 59 0 108 0;
#X connect 60 0 93 0;
#X connect 60 0 98 0;
#X connect 60 0 99 0;
#X connect 60 0 101 0;
#X connect 60 0 102 0;
#X connect 60 0 103 0;
#X connect 60 0 104 0;
#X connect 60 0 105 0;
#X connect 60 0 106 0;
#X connect 60 0 107 0;
#X connect 60 0 108 0;
#X connect 60 0 109 0;
#X connect 61 0 94 0;
#X connect 61 0 98 0;
#X connect 61 0 99 0;
#X connect 61 0 100 0;
#X connect 61 0 102 0;
#X connect 61 0 103 0;
#X connect 61 0 104 0;
#X connect 61 0 105 0;
#X connect 61 0 106 0;
#X connect 61 0 107 0;
#X connect 61 0 108 0;
#X connect 61 0 109 0;
#X connect 62 0 95 0;
#X connect 62 0 98 0;
#X connect 62 0 101 0;
#X connect 62 0 100 0;
#X connect 62 0 99 0;
#X connect 62 0 103 0;
#X connect 62 0 104 0;
#X connect 62 0 105 0;
#X connect 62 0 106 0;
#X connect 62 0 107 0;
#X connect 62 0 108 0;
#X connect 62 0 109 0;
#X connect 63 0 96 0;
#X connect 63 0 104 0;
#X connect 63 0 102 0;
#X connect 63 0 101 0;
#X connect 63 0 100 0;
#X connect 63 0 99 0;
#X connect 63 0 98 0;
#X connect 63 0 105 0;
#X connect 63 0 106 0;
#X connect 63 0 107 0;
#X connect 63 0 108 0;
#X connect 63 0 109 0;
#X connect 64 0 97 0;
#X connect 64 0 98 0;
#X connect 64 0 99 0;
#X connect 64 0 100 0;
#X connect 64 0 101 0;
#X connect 64 0 102 0;
#X connect 64 0 103 0;
#X connect 64 0 105 0;
#X connect 64 0 106 0;
#X connect 64 0 107 0;
#X connect 64 0 108 0;
#X connect 64 0 109 0;
#X connect 65 0 114 0;
#X connect 65 0 104 0;
#X connect 65 0 103 0;
#X connect 65 0 102 0;
#X connect 65 0 101 0;
#X connect 65 0 100 0;
#X connect 65 0 99 0;
#X connect 65 0 98 0;
#X connect 65 0 106 0;
#X connect 65 0 107 0;
#X connect 65 0 108 0;
#X connect 65 0 109 0;
#X connect 66 0 113 0;
#X connect 66 0 105 0;
#X connect 66 0 107 0;
#X connect 66 0 108 0;
#X connect 66 0 109 0;
#X connect 66 0 104 0;
#X connect 66 0 103 0;
#X connect 66 0 102 0;
#X connect 66 0 101 0;
#X connect 66 0 100 0;
#X connect 66 0 99 0;
#X connect 66 0 98 0;
#X connect 67 0 112 0;
#X connect 67 0 108 0;
#X connect 67 0 109 0;
#X connect 67 0 106 0;
#X connect 67 0 105 0;
#X connect 67 0 104 0;
#X connect 67 0 103 0;
#X connect 67 0 102 0;
#X connect 67 0 101 0;
#X connect 67 0 100 0;
#X connect 67 0 99 0;
#X connect 67 0 98 0;
#X connect 68 0 111 0;
#X connect 68 0 109 0;
#X connect 68 0 107 0;
#X connect 68 0 106 0;
#X connect 68 0 105 0;
#X connect 68 0 104 0;
#X connect 68 0 103 0;
#X connect 68 0 102 0;
#X connect 68 0 101 0;
#X connect 68 0 100 0;
#X connect 68 0 99 0;
#X connect 68 0 98 0;
#X connect 69 0 110 0;
#X connect 69 0 108 0;
#X connect 69 0 107 0;
#X connect 69 0 106 0;
#X connect 69 0 105 0;
#X connect 69 0 104 0;
#X connect 69 0 103 0;
#X connect 69 0 102 0;
#X connect 69 0 101 0;
#X connect 69 0 100 0;
#X connect 69 0 99 0;
#X connect 69 0 98 0;
#X connect 86 0 56 0;
#X connect 87 0 88 0;
#X connect 87 0 90 0;
#X connect 91 0 87 0;
#X connect 92 0 55 0;
#X connect 93 0 55 0;
#X connect 94 0 55 0;
#X connect 95 0 55 0;
#X connect 96 0 55 0;
#X connect 97 0 55 0;
#X connect 98 0 55 0;
#X connect 99 0 55 0;
#X connect 100 0 55 0;
#X connect 101 0 55 0;
#X connect 102 0 55 0;
#X connect 103 0 55 0;
#X connect 104 0 55 0;
#X connect 105 0 55 0;
#X connect 106 0 55 0;
#X connect 107 0 55 0;
#X connect 108 0 55 0;
#X connect 109 0 55 0;
#X connect 110 0 55 0;
#X connect 111 0 55 0;
#X connect 112 0 55 0;
#X connect 113 0 55 0;
#X connect 114 0 55 0;
#X connect 115 0 55 0;
#X connect 116 0 55 0;
